<svg class="svg-icon" style="width: 1em; height: 1em;vertical-align: middle;fill: currentColor;overflow: hidden;color: red;" viewBox="0 0 1024 1024" version="1.1" xmlns="http://www.w3.org/2000/svg">
    <path d="M512 4.266667C792.32 4.266667 1019.733333 231.68 1019.733333 512S792.32 1019.733333 512 1019.733333 4.266667 792.32 4.266667 512 231.68 4.266667 512 4.266667z m0 76.8C274.133333 81.066667 81.066667 274.133333 81.066667 512c0 237.866667 193.066667 430.933333 430.933333 430.933333 237.866667 0 430.933333-193.066667 430.933333-430.933333 0-237.866667-193.066667-430.933333-430.933333-430.933333z"/>
    <path d="M469.333333 682.666667a42.666667 42.666667 0 0 1 85.333334 0 42.666667 42.666667 0 0 1-85.333334 0zM469.333333 520.533333V298.666667a42.666667 42.666667 0 0 1 85.333334 0v221.866666a42.666667 42.666667 0 0 1-85.333334 0z"/>
</svg>
